<?xml version="1.0" encoding="UTF-8" standalone="no"?>
<!-- Uploaded to: SVG Repo, www.svgrepo.com, Generator: SVG Repo Mixer Tools -->

<svg
   fill="#000000"
   width="800px"
   height="800px"
   viewBox="0 0 32 32"
   version="1.1"
   id="svg6"
   sodipodi:docname="AceAddonBack.svg"
   inkscape:version="1.2.1 (9c6d41e410, 2022-07-14)"
   xmlns:inkscape="http://www.inkscape.org/namespaces/inkscape"
   xmlns:sodipodi="http://sodipodi.sourceforge.net/DTD/sodipodi-0.dtd"
   xmlns="http://www.w3.org/2000/svg"
   xmlns:svg="http://www.w3.org/2000/svg"
   xmlns:rdf="http://www.w3.org/1999/02/22-rdf-syntax-ns#"
   xmlns:cc="http://creativecommons.org/ns#"
   xmlns:dc="http://purl.org/dc/elements/1.1/">
  <defs
     id="defs10" />
  <sodipodi:namedview
     id="namedview8"
     pagecolor="#ffffff"
     bordercolor="#000000"
     borderopacity="0.25"
     inkscape:showpageshadow="2"
     inkscape:pageopacity="0.0"
     inkscape:pagecheckerboard="true"
     inkscape:deskcolor="#d1d1d1"
     showgrid="false"
     inkscape:zoom="0.417193"
     inkscape:cx="272.05634"
     inkscape:cy="485.38686"
     inkscape:window-width="1728"
     inkscape:window-height="1010"
     inkscape:window-x="1913"
     inkscape:window-y="-6"
     inkscape:window-maximized="1"
     inkscape:current-layer="svg6" />
  <title
     id="title2">return</title>
  <path
     d="M0 21.984q0.032-0.8 0.608-1.376l4-4q0.448-0.48 1.056-0.576t1.12 0.128 0.864 0.736 0.352 1.12v1.984h18.016q0.8 0 1.408-0.576t0.576-1.408v-8q0-0.832-0.576-1.408t-1.408-0.608h-16q-0.736 0-1.248-0.416t-0.64-0.992 0-1.152 0.64-1.024 1.248-0.416h16q2.464 0 4.224 1.76t1.76 4.256v8q0 2.496-1.76 4.224t-4.224 1.76h-18.016v2.016q0 0.64-0.352 1.152t-0.896 0.704-1.12 0.096-1.024-0.544l-4-4q-0.64-0.608-0.608-1.44z"
     id="path4"
     style="fill:#ffffff;fill-opacity:1" />
  <metadata
     id="metadata866">
    <rdf:RDF>
      <cc:Work
         rdf:about="">
        <dc:title>return</dc:title>
      </cc:Work>
    </rdf:RDF>
  </metadata>
</svg>
