<?xml version="1.0" encoding="UTF-8" standalone="no"?>
<!-- Uploaded to: SVG Repo, www.svgrepo.com, Generator: SVG Repo Mixer Tools -->

<svg
   width="800px"
   height="800px"
   viewBox="0 0 24 24"
   fill="none"
   version="1.1"
   id="svg4"
   sodipodi:docname="AceAddonVerifySettings.svg"
   inkscape:version="1.2.1 (9c6d41e410, 2022-07-14)"
   xmlns:inkscape="http://www.inkscape.org/namespaces/inkscape"
   xmlns:sodipodi="http://sodipodi.sourceforge.net/DTD/sodipodi-0.dtd"
   xmlns="http://www.w3.org/2000/svg"
   xmlns:svg="http://www.w3.org/2000/svg">
  <defs
     id="defs8" />
  <sodipodi:namedview
     id="namedview6"
     pagecolor="#ffffff"
     bordercolor="#000000"
     borderopacity="0.25"
     inkscape:showpageshadow="2"
     inkscape:pageopacity="0.0"
     inkscape:pagecheckerboard="true"
     inkscape:deskcolor="#d1d1d1"
     showgrid="false"
     inkscape:zoom="0.295"
     inkscape:cx="174.57627"
     inkscape:cy="401.69492"
     inkscape:window-width="1728"
     inkscape:window-height="1010"
     inkscape:window-x="1913"
     inkscape:window-y="-6"
     inkscape:window-maximized="1"
     inkscape:current-layer="svg4" />
  <path
     fill="#000000"
     fill-rule="evenodd"
     d="M9.024 2.783A1 1 0 0 1 10 2h4a1 1 0 0 1 .976.783l.44 1.981c.4.19.781.41 1.14.66l1.938-.61a1 1 0 0 1 1.166.454l2 3.464a1 1 0 0 1-.19 1.237l-1.497 1.373a8.1 8.1 0 0 1 0 1.316l1.497 1.373a1 1 0 0 1 .19 1.237l-2 3.464a1 1 0 0 1-1.166.454l-1.937-.61c-.36.25-.741.47-1.14.66l-.44 1.98A1 1 0 0 1 14 22h-4a1 1 0 0 1-.976-.783l-.44-1.981c-.4-.19-.781-.41-1.14-.66l-1.938.61a1 1 0 0 1-1.166-.454l-2-3.464a1 1 0 0 1 .19-1.237l1.497-1.373a8.097 8.097 0 0 1 0-1.316L2.53 9.97a1 1 0 0 1-.19-1.237l2-3.464a1 1 0 0 1 1.166-.454l1.937.61c.36-.25.741-.47 1.14-.66l.44-1.98zm6.683 7.924a1 1 0 0 0-1.414-1.414L11 12.586l-1.293-1.293a1 1 0 0 0-1.414 1.414l2 2a1 1 0 0 0 1.414 0l4-4z"
     clip-rule="evenodd"
     id="path2"
     style="fill:#ffffff;fill-opacity:1" />
</svg>
