<?xml version="1.0" encoding="UTF-8" standalone="no"?>
<!-- Uploaded to: SVG Repo, www.svgrepo.com, Generator: SVG Repo Mixer Tools -->

<svg
   height="800px"
   width="800px"
   version="1.1"
   id="Capa_1"
   viewBox="0 0 32 32"
   xml:space="preserve"
   sodipodi:docname="AceAddonUpdate.svg"
   inkscape:version="1.2.1 (9c6d41e410, 2022-07-14)"
   xmlns:inkscape="http://www.inkscape.org/namespaces/inkscape"
   xmlns:sodipodi="http://sodipodi.sourceforge.net/DTD/sodipodi-0.dtd"
   xmlns="http://www.w3.org/2000/svg"
   xmlns:svg="http://www.w3.org/2000/svg"><defs
   id="defs14" /><sodipodi:namedview
   id="namedview12"
   pagecolor="#ffffff"
   bordercolor="#000000"
   borderopacity="0.25"
   inkscape:showpageshadow="2"
   inkscape:pageopacity="0.0"
   inkscape:pagecheckerboard="true"
   inkscape:deskcolor="#d1d1d1"
   showgrid="false"
   inkscape:zoom="0.295"
   inkscape:cx="174.57627"
   inkscape:cy="401.69492"
   inkscape:window-width="1728"
   inkscape:window-height="1010"
   inkscape:window-x="1913"
   inkscape:window-y="-6"
   inkscape:window-maximized="1"
   inkscape:current-layer="Capa_1" />
<g
   id="g9">
	<g
   id="loop_x5F_alt1">
		<g
   id="g6">
			<path
   style="fill:#ffffff"
   d="M26,16l-6,6h4c0,1.102-0.898,2-2,2H10c-1.102,0-2-0.898-2-2v-2H4v2c0,3.309,2.691,6,6,6h12     c3.309,0,6-2.691,6-6h4L26,16z"
   id="path2" />
			<path
   style="fill:#ffffff"
   d="M22,4H10c-3.309,0-6,2.691-6,6v0.062H0L6,16l6-5.938H8V10c0-1.102,0.898-2,2-2h12     c1.102,0,2,0.898,2,2v2h4v-2C28,6.691,25.309,4,22,4z"
   id="path4" />
		</g>
	</g>
</g>
</svg>
