<?xml version="1.0" encoding="UTF-8" standalone="no"?>
<!-- Uploaded to: SVG Repo, www.svgrepo.com, Generator: SVG Repo Mixer Tools -->

<svg
   width="800px"
   height="800px"
   viewBox="0 0 24 24"
   fill="none"
   version="1.1"
   id="svg2534"
   sodipodi:docname="AceAddonReload.svg"
   inkscape:version="1.2.1 (9c6d41e410, 2022-07-14)"
   xmlns:inkscape="http://www.inkscape.org/namespaces/inkscape"
   xmlns:sodipodi="http://sodipodi.sourceforge.net/DTD/sodipodi-0.dtd"
   xmlns="http://www.w3.org/2000/svg"
   xmlns:svg="http://www.w3.org/2000/svg">
  <defs
     id="defs2538" />
  <sodipodi:namedview
     id="namedview2536"
     pagecolor="#ffffff"
     bordercolor="#000000"
     borderopacity="0.25"
     inkscape:showpageshadow="2"
     inkscape:pageopacity="0.0"
     inkscape:pagecheckerboard="true"
     inkscape:deskcolor="#d1d1d1"
     showgrid="false"
     inkscape:zoom="0.834386"
     inkscape:cx="330.18291"
     inkscape:cy="402.09208"
     inkscape:window-width="1728"
     inkscape:window-height="1010"
     inkscape:window-x="-6"
     inkscape:window-y="-6"
     inkscape:window-maximized="1"
     inkscape:current-layer="svg2534" />
  <path
     d="m 9,17 h 1 M 9,13 h 3 M 9,9 h 1 M 13,3 H 8.2 C 7.0799,3 6.51984,3 6.09202,3.21799 5.71569,3.40973 5.40973,3.71569 5.21799,4.09202 5,4.51984 5,5.0799 5,6.2 v 11.6 c 0,1.1201 0,1.6802 0.21799,2.108 0.19174,0.3763 0.4977,0.6823 0.87403,0.874 C 6.51984,21 7.0799,21 8.2,21 H 11 M 13,3 19,9 M 13,3 v 4.4 c 0,0.56005 0,0.84008 0.109,1.05399 0.0959,0.18816 0.2488,0.34114 0.437,0.43702 C 13.7599,9 14.0399,9 14.6,9 H 19 m 0,0 v 2 m 2,3.5 v 3 h -3 m 1.5,2.7361 C 18.9692,20.7111 18.2684,21 17.5,21 c -1.6569,0 -3,-1.3431 -3,-3 0,-1.6569 1.3431,-3 3,-3 1.3062,0 2.4175,0.8348 2.8293,2"
     stroke="#000000"
     stroke-width="2"
     stroke-linecap="round"
     stroke-linejoin="round"
     id="path2532"
     style="display:inline;fill:none;fill-opacity:1;fill-rule:nonzero;stroke-width:2.00001;stroke-dasharray:none;stroke:#ffffff;stroke-opacity:1" />
</svg>
