<?xml version="1.0" encoding="UTF-8" standalone="no"?>
<!-- Uploaded to: SVG Repo, www.svgrepo.com, Generator: SVG Repo Mixer Tools -->

<svg
   width="800px"
   height="800px"
   viewBox="0 0 24 24"
   id="package-alt"
   class="icon glyph"
   version="1.1"
   sodipodi:docname="Package.svg"
   inkscape:version="1.2.1 (9c6d41e410, 2022-07-14)"
   xmlns:inkscape="http://www.inkscape.org/namespaces/inkscape"
   xmlns:sodipodi="http://sodipodi.sourceforge.net/DTD/sodipodi-0.dtd"
   xmlns="http://www.w3.org/2000/svg"
   xmlns:svg="http://www.w3.org/2000/svg">
  <defs
     id="defs5566" />
  <sodipodi:namedview
     id="namedview5564"
     pagecolor="#ffffff"
     bordercolor="#000000"
     borderopacity="0.25"
     inkscape:showpageshadow="2"
     inkscape:pageopacity="0.0"
     inkscape:pagecheckerboard="true"
     inkscape:deskcolor="#d1d1d1"
     showgrid="false"
     inkscape:zoom="0.295"
     inkscape:cx="174.57627"
     inkscape:cy="401.69492"
     inkscape:window-width="1728"
     inkscape:window-height="1010"
     inkscape:window-x="1913"
     inkscape:window-y="-6"
     inkscape:window-maximized="1"
     inkscape:current-layer="package-alt" />
  <path
     d="M12.54,10.67l-.54.27-.54-.27-8-4s0,0,0,0h0l8-4.5a1,1,0,0,1,1,0l8,4.5h0s0,0,0,0l-4,2a.24.24,0,0,0-.09-.06l-4-2a1,1,0,0,0-.9,1.78l2.77,1.39ZM3,7.56a.06.06,0,0,1,0,0v9a1,1,0,0,0,.51.87l8,4.49v-10l-.5-.25Zm18,0-4,2V14a1,1,0,0,1-2,0V10.56l-2.5,1.25v10l8-4.49A1,1,0,0,0,21,16.5v-9A.06.06,0,0,1,21,7.56Z"
     style="fill:#ffffff;fill-opacity:1"
     id="path5561" />
</svg>
