<?xml version="1.0" encoding="UTF-8" standalone="no"?>
<!-- Uploaded to: SVG Repo, www.svgrepo.com, Generator: SVG Repo Mixer Tools -->

<svg
   version="1.1"
   id="Icons"
   viewBox="0 0 42 42"
   xml:space="preserve"
   sodipodi:docname="AceAddonManager.svg"
   width="42"
   height="42"
   inkscape:version="1.2.1 (9c6d41e410, 2022-07-14)"
   xmlns:inkscape="http://www.inkscape.org/namespaces/inkscape"
   xmlns:sodipodi="http://sodipodi.sourceforge.net/DTD/sodipodi-0.dtd"
   xmlns="http://www.w3.org/2000/svg"
   xmlns:svg="http://www.w3.org/2000/svg"><defs
   id="defs9" /><sodipodi:namedview
   id="namedview7"
   pagecolor="#ffffff"
   bordercolor="#000000"
   borderopacity="0.25"
   inkscape:showpageshadow="2"
   inkscape:pageopacity="0.0"
   inkscape:pagecheckerboard="0"
   inkscape:deskcolor="#d1d1d1"
   showgrid="false"
   inkscape:zoom="7.375"
   inkscape:cx="-22.983051"
   inkscape:cy="38.847458"
   inkscape:window-width="1920"
   inkscape:window-height="1010"
   inkscape:window-x="5369"
   inkscape:window-y="-6"
   inkscape:window-maximized="1"
   inkscape:current-layer="Icons" />
<style
   type="text/css"
   id="style2">
	.st0{fill:none;stroke:#000000;stroke-width:2;stroke-linecap:round;stroke-linejoin:round;stroke-miterlimit:10;}
</style>
<path
   id="path4"
   style="fill:#e0e0e0;fill-opacity:1;stroke-width:1.35678"
   d="m 20.685943,2.3407818 c -0.16454,5.13e-4 -0.329439,0.00271 -0.494798,0.00705 C 10.422333,2.7548706 2.4175123,10.760085 2.0104808,20.664573 1.7391337,28.940926 6.7588413,36.403437 14.492486,39.252671 c 0.678389,0.271346 1.356841,0.406661 1.899552,0.406661 1.221103,0 2.306631,-0.407068 3.256377,-1.085463 1.628136,-1.085418 2.577578,-2.985071 2.577578,-4.884562 v -2.984238 c 3.120593,-0.678392 5.427298,-3.392554 5.427298,-6.648825 v -5.426519 c 0,-0.814069 -0.542754,-1.356825 -1.356824,-1.356825 h -1.356826 v -4.070471 c 0,-0.814068 -0.542754,-1.356825 -1.356823,-1.356825 -0.814069,0 -1.356825,0.542757 -1.356825,1.356825 V 17.2729 h -2.713645 v -4.070471 c 0,-0.814068 -0.542758,-1.356825 -1.356825,-1.356825 -0.814069,0 -1.356823,0.542757 -1.356823,1.356825 V 17.2729 h -1.356052 c -0.814065,0 -1.356823,0.542756 -1.356823,1.356825 v 5.426519 c 0,3.256271 2.30593,5.970433 5.426523,6.648825 v 2.984237 c 0,1.085426 -0.542758,2.035255 -1.356825,2.713647 -0.814069,0.542707 -1.899197,0.678794 -2.848943,0.407436 C 8.7940381,34.232507 4.4519972,27.855502 4.7233523,20.664573 4.9946995,12.38822 12.050087,5.3328391 20.326441,5.0614838 c 4.477372,-0.1356872 8.68378,1.4922165 11.940051,4.477134 3.25627,3.1205942 5.01986,7.3266102 5.01986,11.8039812 0,6.783895 -4.205587,12.889899 -10.582452,15.196423 -0.678389,0.271348 -1.085451,1.085097 -0.814093,1.763485 0.271348,0.678392 1.085093,1.085451 1.763484,0.814093 C 34.9799,36.403046 40,29.211918 40,21.342599 40,16.186838 37.965029,11.302369 34.166045,7.6390618 30.485783,4.090139 25.786737,2.3243522 20.685943,2.3407818 Z m 0.388878,17.0240812 c 0.213262,0.439432 1.209485,1.969161 2.724469,3.432648 1.010444,1.050825 1.129631,2.461841 0.252809,3.325957 -0.877501,0.851865 -1.913096,0.253597 -2.497949,-0.21261 0,0.292424 0.105617,1.210799 0.956349,2.075824 h -2.843533 c 0.837121,-0.865025 0.943288,-1.769563 0.957124,-2.075824 -0.598462,0.466202 -1.634964,1.064471 -2.497948,0.21261 -0.904272,-0.864116 -0.784012,-2.261295 0.225748,-3.325957 1.514984,-1.463487 2.510356,-2.993216 2.722926,-3.432648 z" />
</svg>
